<?xml version="1.0" encoding="UTF-8"?>
<svg width="189mm" height="91.592mm" version="1.1" viewBox="0 0 669.69504 324.54035" xmlns="http://www.w3.org/2000/svg" xmlns:xlink="http://www.w3.org/1999/xlink">
 <defs>
  <path id="a" d="m0-9 1.7355 5.3961 5.301-2.0075-3.1368 4.7213 4.8746 2.8928-5.647 0.49127 0.77763 5.6148-3.905-4.1087-3.905 4.1087 0.77763-5.6148-5.647-0.49127 4.8746-2.8928-3.1368-4.7213 5.301 2.0075 1.7355-5.3961z"/>
  <path id="b" d="m0-9 2.3511 5.7639 6.2084 0.45492-4.7553 4.0172 1.4858 6.0451-5.2901-3.2812-5.2901 3.2812 1.4858-6.0451-4.7553-4.0172 6.2084-0.45492 2.3511-5.7639z"/>
 </defs>
 <g transform="translate(-42.815 -15.473)">
  <path d="m656.81 339.74c-2.0271-0.26264-23.242-4.2734-38.481-7.2753-6.6802-1.3158-25.364-4.7654-41.857-7.728-6.631-1.1911-22.425-3.0812-30.984-3.7081-4.7882-0.35073-21.127-0.63762-36.309-0.63762-29.597 0-30.312-0.0685-33.444-3.1859-1.9722-1.9631-8.3384-14.32-15.351-29.798-16.007-35.328-18.605-40.415-26.841-52.564-7.0609-10.416-14.06-18.966-19.759-24.137-8.3197-7.5493-13.029-9.8572-31.789-15.58-13.67-4.17-20.831-7.2083-29.392-12.472-8.924-5.4866-13.525-10.033-21.942-21.678-7.6244-10.549-9.7455-12.657-13.683-13.598-2.59-0.61863-7.6606 2.1777-31.59 17.421-13.649 8.6948-25.338 15.626-37.122 22.011-5.1421 2.7865-11.02 5.972-13.062 7.0788-5.699 3.0886-27.348 12.892-35.19 15.934-25.746 9.9895-46.335 13.555-67.089 11.619-26.966-2.5154-42.399-8.5888-61.114-24.05-7.517-6.2101-13.451-12.402-18.974-19.796-8.7327-11.693-11.37-18.366-9.4093-23.809 1.5358-4.2643 4.3314-3.3986 8.89 2.7528 9.7799 13.197 22.514 23.314 38.075 30.249 15.819 7.0505 30.449 10.655 43.545 10.729 8.7817 0.0497 10.774-0.25213 22.954-3.478 15.782-4.1798 34.066-14.298 62.448-34.557 25.557-18.243 46.609-37.457 69.35-63.296 8.6767-9.8586 15.38-17.001 21.496-22.904 3.551-3.4275 8.2426-8.1805 10.426-10.562 6.4894-7.0798 11.831-11.958 17.34-15.834 2.8558-2.0094 5.4768-3.6535 5.8246-3.6535 0.34776 0 1.0368-0.44659 1.5311-0.99243 0.49434-0.54583 1.5189-1.2538 2.2768-1.5732 1.9143-0.80681 3.7125-1.8151 6.4553-3.6196 2.5268-1.6624 4.4563-2.6748 9.8348-5.1605 1.8894-0.87318 3.8254-2.0183 4.3021-2.5447 0.47677-0.52642 1.1801-0.95714 1.5629-0.95714s2.2444-0.66452 4.1368-1.4767c7.7632-3.3319 17.246-6.0943 26.935-7.8462 26.691-4.8263 45.795-4.7889 60.22 0.11792 3.7953 1.2911 6.7494 2.4576 7.7638 3.0659 0.55697 0.33397 1.6203 0.78299 2.3629 0.99781 2.5379 0.73415 13.612 6.2008 19.299 9.527 15.459 9.0408 28.413 19.394 54.858 43.844 21.806 20.16 25.147 22.457 35.594 24.471 11.195 2.1581 19.548 0.80792 35.386-5.7197 9.6418-3.974 16.699-8.846 17.605-12.154 0.87973-3.212-0.49809-4.478-8.9689-8.2411-6.8769-3.055-8.6343-4.1648-13.036-8.2315-4.1456-3.8304-5.8012-5.9872-8.9452-11.653-3.6865-6.6432-4.6784-10.079-3.1583-10.94 1.1642-0.65934 7.753 1.5586 15.902 5.353 14.073 6.5526 19.948 11.148 27.861 21.791 6.116 8.2265 6.6931 8.6825 10.357 8.1815 7.9033-1.0806 8.4851-1.0822 10.751-0.0292 5.4522 2.5341 8.6423 4.7649 39.343 27.511 5.6056 4.1532 8.5066 7.3592 8.5066 9.4008 0 0.64645-0.80387 1.858-1.7864 2.6924-2.2465 1.9078-5.4788 1.9789-12.729 0.27978-7.9689-1.8676-14.664-1.6193-33.216 1.2322-11.328 1.7412-16.56 2.8065-17.737 3.612-0.91859 0.62835-2.3871 2.7882-3.2634 4.7997-0.87627 2.0115-2.6433 4.91-3.9268 6.4412-4.8954 5.8403-19.95 19.024-30.971 27.124-6.3123 4.6387-14.486 10.894-18.163 13.9-6.8008 5.5595-11.652 8.7598-22.122 14.594-12.842 7.1558-13.473 8.1368-20.783 32.317-6.1755 20.428-11.591 29.244-20.46 33.305-4.996 2.2877-8.4839 2.4492-10.379 0.48051-1.6811-1.7466-11.048-19.081-11.048-20.446 0-1.1602 1.9734-2.2897 4.0005-2.2897 0.76382 0 2.7818 0.97438 4.4843 2.1653 1.7026 1.1909 3.3961 2.1653 3.7634 2.1653 2.3146 0 5.5974-3.0018 8.457-7.7332 1.7507-2.8966 1.8616-3.5197 1.7446-9.8008-0.21238-11.4-3.6115-32.073-6.0467-36.776-2.4115-4.6569-8.3482-4.9291-17.416-0.79842-14.149 6.4454-18.708 14.28-21.629 37.161-2.2955 17.982-0.59589 32.081 6.0788 50.426 5.0732 13.944 9.991 22.154 15.021 25.077 3.3328 1.9368 3.7275 2.002 22.471 3.7124 32.259 2.9437 53.625 6.3032 74.6 11.729 2.5992 0.67243 8.0676 2.0446 12.152 3.0493 4.0844 1.0048 15.781 4.0498 25.992 6.7667 29.698 7.9022 33.829 9.3979 34.318 12.427 0.65974 4.0881-7.8713 6.9668-17.102 5.7708zm10.754-247.99c1.6295-1.4932 1.2899-2.6755-1.5041-5.2358-3.331-3.0524-7.2312-3.8901-8.967-1.9258-1.45 1.6409-1.0505 3.1938 1.3679 5.3171 2.9758 2.6126 7.3073 3.4903 9.1032 1.8446z" fill="#00008b"/>
  <g transform="matrix(.90015 0 0 .82487 32.239 -521.71)" fill="#fff">
   <use transform="matrix(2.8576 0 0 2.8576 357.26 813.1)" width="100%" height="100%" xlink:href="#a"/>
   <use transform="matrix(1.3608 0 0 1.3608 528.72 827.39)" width="100%" height="100%" xlink:href="#a"/>
   <use transform="matrix(1.3608 0 0 1.3608 485.85 759.52)" width="100%" height="100%" xlink:href="#a"/>
   <use transform="matrix(1.3608 0 0 1.3608 528.72 713.08)" width="100%" height="100%" xlink:href="#a"/>
   <use transform="matrix(1.3608 0 0 1.3608 566.82 748.09)" width="100%" height="100%" xlink:href="#a"/>
   <use transform="matrix(.79378 0 0 .79378 545.86 777.38)" width="100%" height="100%" xlink:href="#b"/>
  </g>
  <path d="m344.52 42.916c-0.29119 0.19388-0.56657 0.31836-0.74805 0.31836-0.21474 0-1.3423 0.6665-2.8106 1.6191v21.635h-23.957c-2.1715 2.2212-4.6796 4.7288-6.8223 6.7969-4.7589 4.5934-9.9059 9.9833-16.029 16.773h46.809v23.572h25.723v-23.572h64.307v-23.57h-64.307v-23.572h-22.164z" fill="#fff"/>
  <path d="m325.64 57.455c-1.6115 1.6149-3.2762 3.355-5.0293 5.2676-1.2491 1.3627-3.3176 3.4843-5.5254 5.707l98.654 45.201h17.254v-7.9062l-105.35-48.27z" fill="#fff"/>
  <path d="m413.74 42.916-131.18 60.104c-1.9747 2.168-3.9428 4.2974-5.9043 6.375v4.2363h17.254l137.08-62.809v-7.9062h-17.254z" fill="#fff"/>
  <path d="m346.11 42.916v28.285h-33.82c-0.7065 0.696-1.4514 1.4545-2.1035 2.084-3.588 3.4632-7.4386 7.444-11.711 12.059h47.635v28.287h15.434v-28.287h69.451v-14.143h-69.451v-28.285h-15.434z" fill="#f00"/>
  <path d="m419.49 42.916-51.445 23.572h11.504l51.445-23.572h-11.504zm-99.098 20.039c-0.85618 0.92692-2.0535 2.1715-3.3848 3.5332h11.094l-7.709-3.5332z" fill="#f00"/>
  <path d="m430.99 113.63-51.446-23.572h11.504l39.942 18.301v5.2708zm-154.34 0h11.504l51.446-23.572h-11.504l-51.446 23.572z" fill="#f00"/>
 </g>
</svg>
