<svg id="visual" viewBox="0 0 600 560" width="600" height="560" xmlns="http://www.w3.org/2000/svg" xmlns:xlink="http://www.w3.org/1999/xlink" version="1.1"><rect width="600" height="560" fill="#ffffff"></rect><g><g transform="translate(431 315)"><path d="M0 -13.7L11.8 -6.8L11.8 6.8L0 13.7L-11.8 6.8L-11.8 -6.8Z" fill="none" stroke="#D11D27" stroke-width="2"></path></g><g transform="translate(190 88)"><path d="M0 -2L1.7 -1L1.7 1L0 2L-1.7 1L-1.7 -1Z" fill="none" stroke="#D11D27" stroke-width="2"></path></g><g transform="translate(66 386)"><path d="M0 -4L3.5 -2L3.5 2L0 4L-3.5 2L-3.5 -2Z" stroke="#D11D27" fill="none" stroke-width="2"></path></g><g transform="translate(543 374)"><path d="M0 -10L8.7 -5L8.7 5L0 10L-8.7 5L-8.7 -5Z" stroke="#D11D27" fill="none" stroke-width="2"></path></g><g transform="translate(354 148)"><path d="M0 -12L10.4 -6L10.4 6L0 12L-10.4 6L-10.4 -6Z" stroke="#D11D27" fill="none" stroke-width="2"></path></g><g transform="translate(437 201)"><path d="M0 -12L10.4 -6L10.4 6L0 12L-10.4 6L-10.4 -6Z" stroke="#D11D27" fill="none" stroke-width="2"></path></g><g transform="translate(517 80)"><path d="M0 -10L8.7 -5L8.7 5L0 10L-8.7 5L-8.7 -5Z" stroke="#D11D27" fill="none" stroke-width="2"></path></g><g transform="translate(508 123)"><path d="M0 -4L3.5 -2L3.5 2L0 4L-3.5 2L-3.5 -2Z" stroke="#D11D27" fill="none" stroke-width="2"></path></g><g transform="translate(536 48)"><path d="M0 -8L6.9 -4L6.9 4L0 8L-6.9 4L-6.9 -4Z" stroke="#D11D27" fill="none" stroke-width="2"></path></g><g transform="translate(581 420)"><path d="M0 -8L6.9 -4L6.9 4L0 8L-6.9 4L-6.9 -4Z" stroke="#D11D27" fill="none" stroke-width="2"></path></g><g transform="translate(394 199)"><path d="M0 -2L1.7 -1L1.7 1L0 2L-1.7 1L-1.7 -1Z" stroke="#D11D27" fill="none" stroke-width="2"></path></g><g transform="translate(590 71)"><path d="M0 -8L6.9 -4L6.9 4L0 8L-6.9 4L-6.9 -4Z" stroke="#D11D27" fill="none" stroke-width="2"></path></g><g transform="translate(528 461)"><path d="M0 -12L10.4 -6L10.4 6L0 12L-10.4 6L-10.4 -6Z" stroke="#D11D27" fill="none" stroke-width="2"></path></g><g transform="translate(547 281)"><path d="M0 -12L10.4 -6L10.4 6L0 12L-10.4 6L-10.4 -6Z" stroke="#D11D27" fill="none" stroke-width="2"></path></g><g transform="translate(45 557)"><path d="M0 -6L5.2 -3L5.2 3L0 6L-5.2 3L-5.2 -3Z" stroke="#D11D27" fill="none" stroke-width="2"></path></g><g transform="translate(93 539)"><path d="M0 -6L5.2 -3L5.2 3L0 6L-5.2 3L-5.2 -3Z" stroke="#D11D27" fill="none" stroke-width="2"></path></g></g></svg>