<svg id="visual" viewBox="0 0 600 560" width="600" height="560" xmlns="http://www.w3.org/2000/svg" xmlns:xlink="http://www.w3.org/1999/xlink" version="1.1"><rect width="600" height="560" fill="#ffffff"></rect><g><g transform="translate(119 89)"><path d="M0 -13.7L11.8 -6.8L11.8 6.8L0 13.7L-11.8 6.8L-11.8 -6.8Z" fill="none" stroke="#D11D27" stroke-width="2"></path></g><g transform="translate(585 382)"><path d="M0 -8L6.9 -4L6.9 4L0 8L-6.9 4L-6.9 -4Z" fill="none" stroke="#D11D27" stroke-width="2"></path></g><g transform="translate(285 75)"><path d="M0 -6L5.2 -3L5.2 3L0 6L-5.2 3L-5.2 -3Z" stroke="#D11D27" fill="none" stroke-width="2"></path></g><g transform="translate(346 418)"><path d="M0 -5L4.3 -2.5L4.3 2.5L0 5L-4.3 2.5L-4.3 -2.5Z" stroke="#D11D27" fill="none" stroke-width="2"></path></g><g transform="translate(168 412)"><path d="M0 -3L2.6 -1.5L2.6 1.5L0 3L-2.6 1.5L-2.6 -1.5Z" stroke="#D11D27" fill="none" stroke-width="2"></path></g><g transform="translate(272 425)"><path d="M0 -8L6.9 -4L6.9 4L0 8L-6.9 4L-6.9 -4Z" stroke="#D11D27" fill="none" stroke-width="2"></path></g><g transform="translate(411 84)"><path d="M0 -12L10.4 -6L10.4 6L0 12L-10.4 6L-10.4 -6Z" stroke="#D11D27" fill="none" stroke-width="2"></path></g><g transform="translate(226 203)"><path d="M0 -12L10.4 -6L10.4 6L0 12L-10.4 6L-10.4 -6Z" stroke="#D11D27" fill="none" stroke-width="2"></path></g><g transform="translate(219 383)"><path d="M0 -8L6.9 -4L6.9 4L0 8L-6.9 4L-6.9 -4Z" stroke="#D11D27" fill="none" stroke-width="2"></path></g><g transform="translate(232 545)"><path d="M0 -10L8.7 -5L8.7 5L0 10L-8.7 5L-8.7 -5Z" stroke="#D11D27" fill="none" stroke-width="2"></path></g><g transform="translate(312 66)"><path d="M0 -2L1.7 -1L1.7 1L0 2L-1.7 1L-1.7 -1Z" stroke="#D11D27" fill="none" stroke-width="2"></path></g><g transform="translate(477 76)"><path d="M0 -12L10.4 -6L10.4 6L0 12L-10.4 6L-10.4 -6Z" stroke="#D11D27" fill="none" stroke-width="2"></path></g><g transform="translate(497 204)"><path d="M0 -4L3.5 -2L3.5 2L0 4L-3.5 2L-3.5 -2Z" stroke="#D11D27" fill="none" stroke-width="2"></path></g><g transform="translate(456 444)"><path d="M0 -1L0.9 -0.5L0.9 0.5L0 1L-0.9 0.5L-0.9 -0.5Z" stroke="#D11D27" fill="none" stroke-width="2"></path></g><g transform="translate(381 307)"><path d="M0 -11L9.5 -5.5L9.5 5.5L0 11L-9.5 5.5L-9.5 -5.5Z" stroke="#D11D27" fill="none" stroke-width="2"></path></g><g transform="translate(461 478)"><path d="M0 -4L3.5 -2L3.5 2L0 4L-3.5 2L-3.5 -2Z" stroke="#D11D27" fill="none" stroke-width="2"></path></g></g></svg>