<svg id="visual" viewBox="0 0 600 560" width="600" height="560" xmlns="http://www.w3.org/2000/svg" xmlns:xlink="http://www.w3.org/1999/xlink" version="1.1"><rect x="0" y="0" width="600" height="560" fill="#ffffff"></rect><defs><linearGradient id="grad1_0" x1="6.7%" y1="0%" x2="100%" y2="100%"><stop offset="28.571428571428573%" stop-color="#ffffff" stop-opacity="1"></stop><stop offset="71.42857142857143%" stop-color="#ffffff" stop-opacity="1"></stop></linearGradient></defs><defs><linearGradient id="grad2_0" x1="0%" y1="0%" x2="93.3%" y2="100%"><stop offset="28.571428571428573%" stop-color="#ffffff" stop-opacity="1"></stop><stop offset="71.42857142857143%" stop-color="#ffffff" stop-opacity="1"></stop></linearGradient></defs><g transform="translate(600, 0)"><path d="M0 102.6C-14.2 101.8 -28.3 101 -39.3 94.8C-50.2 88.6 -57.9 76.9 -67.2 67.2C-76.4 57.4 -87.2 49.5 -93.3 38.7C-99.5 27.8 -101 13.9 -102.6 0L0 0Z" fill="#D11D27"></path></g><g transform="translate(0, 560)"><path d="M0 -102.6C13.1 -99 26.1 -95.5 37.1 -89.6C48.1 -83.7 57 -75.5 67.2 -67.2C77.3 -58.9 88.7 -50.5 94.8 -39.3C100.9 -28.1 101.7 -14 102.6 0L0 0Z" fill="#D11D27"></path></g></svg>